<?xml version="1.0" encoding="UTF-8" standalone="no"?>
<svg
   xmlns:dc="http://purl.org/dc/elements/1.1/"
   xmlns:cc="http://creativecommons.org/ns#"
   xmlns:rdf="http://www.w3.org/1999/02/22-rdf-syntax-ns#"
   xmlns:svg="http://www.w3.org/2000/svg"
   xmlns="http://www.w3.org/2000/svg"
   id="svg854"
   version="1.1"
   viewBox="0 0 210 297"
   height="297mm"
   width="210mm">
  <defs
     id="defs848" />
  <metadata
     id="metadata851">
    <rdf:RDF>
      <cc:Work
         rdf:about="">
        <dc:format>image/svg+xml</dc:format>
        <dc:type
           rdf:resource="http://purl.org/dc/dcmitype/StillImage" />
        <dc:title></dc:title>
      </cc:Work>
    </rdf:RDF>
  </metadata>
  <g
     id="layer1">
    <ellipse
       ry="145.84509"
       rx="103.35981"
       cy="149.01677"
       cx="109.37595"
       id="path856"
       style="fill:#cccccc;fill-opacity:1;stroke:#fcfcfc;stroke-width:0.26458332;stroke-opacity:1" />
    <path
       id="path877"
       d="m 153.05646,23.672334 c -6.94885,-1.069057 -19.06506,-0.712697 -27.97412,-0.534514 -8.90905,0.178184 -14.61067,0.178184 -23.16356,0.356368 -8.552884,0.178183 -19.955854,0.534526 -29.933995,2.67266 -9.97814,2.138134 -18.530561,6.057993 -24.766992,11.403427 -6.236431,5.345435 -10.156236,12.116008 -12.963348,18.720346 -2.807112,6.604339 -4.676536,13.708148 -5.923833,19.944577 -1.247297,6.236429 -1.959983,11.937916 0.75492,16.495205 2.714903,4.557289 9.40137,8.271997 17.419398,12.370097 8.018028,4.0981 17.639866,8.73084 24.94529,10.86896 7.305423,2.13812 12.294512,1.78176 24.766516,1.60359 12.472004,-0.17817 32.429264,-0.17817 46.595834,3.31236 14.16656,3.49054 22.89456,10.76387 28.23991,19.31637 5.34536,8.55249 7.48352,18.53059 7.30541,26.19231 -0.17811,7.66171 -2.67257,13.007 -9.26546,17.4617 -6.59288,4.45471 -17.28302,8.01809 -27.08305,10.33448 -9.80003,2.31638 -18.70875,3.38543 -27.43972,3.38544 -8.73098,2e-5 -17.283325,-1.06902 -26.905171,-2.3163 -9.621846,-1.24727 -20.312345,-2.67267 -30.485404,-4.93712 -10.17306,-2.26445 -20.473908,-5.57544 -27.779248,-5.39737 -7.305339,0.17807 -11.937938,3.7416 -13.007108,9.26544 -1.06917,5.52385 1.425187,13.00692 5.416093,18.97796 3.990905,5.97105 9.907191,10.77803 16.856247,14.34163 6.949055,3.5636 15.145363,6.05813 24.410639,7.66172 9.265277,1.60359 19.599909,2.31633 30.646912,3.02904 11.047,0.71271 22.80714,1.42545 32.78515,0.17815 9.97801,-1.24729 18.17446,-4.4546 28.50863,-9.08717 10.33417,-4.63256 22.80724,-10.69091 31.35975,-17.46172 8.5525,-6.77081 13.18529,-14.25454 17.03389,-21.06089 3.8486,-6.80634 7.1985,-13.50614 7.733,-23.30565 0.53449,-9.79951 -1.60377,-22.98546 -5.88002,-33.4979 -4.27626,-10.51245 -10.69083,-18.35248 -19.95609,-25.47962 C 176.04167,101.35878 163.9254,94.944286 149.49284,90.489775 135.06029,86.035264 118.31153,83.540768 104.76962,82.12125 91.227721,80.701731 80.181112,80.333511 74.479201,78.907952 68.77729,77.482392 68.064589,74.987938 67.530077,71.60264 c -0.534511,-3.385297 -0.890896,-7.661908 0.178245,-11.225442 1.069141,-3.563535 3.563797,-6.414571 6.797229,-8.667492 3.233433,-2.252921 7.813781,-4.161399 13.158917,-5.40858 5.345137,-1.247181 11.760086,-1.959953 19.421602,-2.316296 7.66151,-0.356343 16.57089,-0.356343 22.80713,-0.356343 6.23624,0 9.79993,0 14.07605,0.178175 4.27612,0.178176 9.26552,0.534561 12.6509,0.712732 3.38538,0.178171 5.16727,0.178171 6.94896,-0.356383 1.78169,-0.534554 3.56375,-1.60379 3.56372,-4.097929 -3e-5,-2.494139 -1.78214,-6.414777 -3.5639,-9.621939 -1.78176,-3.207161 -3.56361,-5.701752 -10.51247,-6.770809 z"
       style="opacity:1;vector-effect:none;fill:#f9f9f9;fill-opacity:1;stroke:#fcfcfc;stroke-width:0.26458332;stroke-linecap:butt;stroke-linejoin:miter;stroke-miterlimit:4;stroke-dasharray:none;stroke-dashoffset:0;stroke-opacity:1" />
  </g>
</svg>
